<svg width="100" height="100" viewBox="0 0 100 100" fill="none" xmlns="http://www.w3.org/2000/svg">
<path d="M55.6233 50C55.6233 53.1278 53.0877 55.6633 49.96 55.6633C46.8322 55.6633 44.2966 53.1278 44.2966 50C44.2966 46.8722 46.8322 44.3367 49.96 44.3367C53.0877 44.3367 55.6233 46.8722 55.6233 50Z" stroke="white" stroke-width="3"/>
<path d="M66.6519 50C66.6519 63.7672 64.7404 76.2099 61.6645 85.1934C60.1256 89.6875 58.3045 93.2886 56.307 95.7561C54.306 98.2279 52.1823 99.5 50.0316 99.5C47.8809 99.5 45.7572 98.2279 43.7562 95.7561C41.7586 93.2886 39.9375 89.6875 38.3987 85.1934C35.3227 76.2099 33.4112 63.7672 33.4112 50C33.4112 36.2328 35.3227 23.7901 38.3987 14.8066C39.9375 10.3125 41.7586 6.71139 43.7562 4.24385C45.7572 1.7721 47.8809 0.5 50.0316 0.5C52.1823 0.5 54.306 1.7721 56.307 4.24385C58.3045 6.71139 60.1256 10.3125 61.6645 14.8066C64.7404 23.7901 66.6519 36.2328 66.6519 50Z" stroke="white"/>
<path d="M61.7523 38.2877C71.4872 48.0226 78.9339 58.1725 83.1111 66.6999C85.2009 70.9658 86.4595 74.7999 86.7918 77.9572C87.1247 81.1199 86.5226 83.5211 85.0018 85.0419C83.481 86.5627 81.0798 87.1648 77.9171 86.8319C74.7598 86.4996 70.9257 85.241 66.6598 83.1512C58.1325 78.974 47.9825 71.5273 38.2476 61.7924C28.5128 52.0575 21.066 41.9076 16.8888 33.3803C14.7991 29.1143 13.5405 25.2802 13.2081 22.1229C12.8753 18.9602 13.4774 16.5591 14.9982 15.0383C16.519 13.5175 18.9202 12.9153 22.0829 13.2482C25.2402 13.5805 29.0742 14.8392 33.3402 16.9289C41.8675 21.1061 52.0175 28.5528 61.7523 38.2877Z" stroke="white"/>
<path d="M61.7524 61.7924C52.0175 71.5273 41.8675 78.974 33.3402 83.1512C29.0742 85.2409 25.2402 86.4996 22.0829 86.8319C18.9202 87.1648 16.519 86.5626 14.9982 85.0418C13.4774 83.521 12.8753 81.1199 13.2081 77.9572C13.5405 74.7998 14.7991 70.9658 16.8889 66.6998C21.0661 58.1725 28.5128 48.0226 38.2477 38.2877C47.9825 28.5528 58.1325 21.1061 66.6598 16.9289C70.9258 14.8392 74.7598 13.5805 77.9171 13.2482C81.0798 12.9153 83.481 13.5175 85.0018 15.0383C86.5226 16.5591 87.1248 18.9602 86.7919 22.1229C86.4596 25.2802 85.2009 29.1143 83.1112 33.3803C78.934 41.9076 71.4873 52.0575 61.7524 61.7924Z" stroke="white"/>
<path d="M50 33.4197C63.7672 33.4197 76.2099 35.3312 85.1934 38.4072C89.6875 39.946 93.2886 41.7671 95.7561 43.7647C98.2279 45.7657 99.5 47.8893 99.5 50.0401C99.5 52.1908 98.2279 54.3145 95.7561 56.3154C93.2886 58.313 89.6875 60.1341 85.1934 61.6729C76.2099 64.7489 63.7672 66.6604 50 66.6604C36.2328 66.6604 23.7901 64.7489 14.8066 61.6729C10.3125 60.1341 6.71139 58.313 4.24385 56.3154C1.7721 54.3145 0.5 52.1908 0.5 50.0401C0.5 47.8893 1.7721 45.7657 4.24385 43.7647C6.71139 41.7671 10.3125 39.946 14.8066 38.4072C23.7901 35.3312 36.2328 33.4197 50 33.4197Z" stroke="white"/>
<ellipse cx="39.215" cy="11.0315" rx="3.58167" ry="3.58166" fill="white"/>
<ellipse cx="27.1806" cy="50" rx="3.58166" ry="3.58166" fill="white"/>
<circle cx="70.7336" cy="85.1003" r="3.58166" fill="white"/>
</svg>
