<svg width="686" height="264" viewBox="0 0 686 264" fill="none" xmlns="http://www.w3.org/2000/svg">
<path d="M1 261L52.3444 246H72.6434L90.5542 231L105.48 205.5L121.003 216V198V180L151.451 198L166.974 156.5L187.273 169L205.184 126.5L233.244 143.5L263.692 126.5L301.902 71L316.828 92.5L344.888 43.5L362.799 58.5L396.233 109.5L414.143 92.5L434.442 126.5L464.891 71L485.19 92.5L518.026 5L549.072 43.5L577.132 24L605.192 58.5L622.506 43.5L635.641 58.5L670.865 24L684 43.5" stroke="url(#paint0_linear)" stroke-width="5"/>
<defs>
<linearGradient id="paint0_linear" x1="535.937" y1="-1.49989" x2="145.73" y2="305.963" gradientUnits="userSpaceOnUse">
<stop stop-color="white"/>
<stop offset="1" stop-color="white" stop-opacity="0"/>
</linearGradient>
</defs>
</svg>
